<svg id="Layer_1" data-name="Layer 1" xmlns="http://www.w3.org/2000/svg" viewBox="0 0 312.31 83.13"><defs><style>.cls-1{fill:#e53846;}.cls-2{fill:#d7283a;}.cls-3{fill:#e63947;}.cls-4{fill:#fff;}</style></defs><path class="cls-1" d="M101.77,174.27a38.58,38.58,0,0,1-61,34.06,5.48,5.48,0,0,1,0-8.93h0a5.51,5.51,0,0,1,6.4.08A27.64,27.64,0,1,0,35.72,175c-.19,2.71.6,6.65,1.31,9.54a5.61,5.61,0,0,1-2.32,6h0a5.65,5.65,0,0,1-8.59-3.21,38.58,38.58,0,1,1,75.65-13.12Z" transform="translate(-23.85 -138.44)"/><polygon class="cls-2" points="52.74 24.49 37.99 33.29 29.12 32.08 30.2 21.86 52.74 24.49"/><path class="cls-3" d="M80.09,165.92,77.46,189.6,67,188.49l1.1-8.91L50.57,191.93a5.24,5.24,0,0,1-7.3-1.26h0a5.24,5.24,0,0,1,1.36-7.37l17.21-11.57,14.75-8.81,1.23.15A2.58,2.58,0,0,1,80.09,165.92Z" transform="translate(-23.85 -138.44)"/><path class="cls-4" d="M121.5,175.1l-.41,25a2.66,2.66,0,0,1-2.65,2.6h-7.22a2,2,0,0,1-2-2l.74-41.81a2,2,0,0,1,1.68-1.93l7.35-1.14a2,2,0,0,1,2.29,2l-.09,5.8h.55a13.63,13.63,0,0,1,5.32-6.39A16.09,16.09,0,0,1,136,154.8a16.68,16.68,0,0,1,8.53,2.1,14,14,0,0,1,5.57,6.1,20.81,20.81,0,0,1,1.87,9.58l-.48,27.49a2.66,2.66,0,0,1-2.65,2.6h-6.55a2.64,2.64,0,0,1-2.65-2.69l.42-25.46a10.15,10.15,0,0,0-2.23-7.19,8.29,8.29,0,0,0-6.51-2.6,10.07,10.07,0,0,0-5,1.23,8.87,8.87,0,0,0-3.44,3.56A12.42,12.42,0,0,0,121.5,175.1Z" transform="translate(-23.85 -138.44)"/><path class="cls-4" d="M193.75,156.38a2.08,2.08,0,0,1,2.08,2.08c0,3.73,0,11.38,0,13.61l-.48,29.41a2.1,2.1,0,0,1-2.09,2.06H188a2.09,2.09,0,0,1-2.09-2.13l.08-4.34h-.37a13.19,13.19,0,0,1-2.94,3.72,14,14,0,0,1-4.6,2.67,18.37,18.37,0,0,1-6.31,1,19.36,19.36,0,0,1-8-1.58,12.46,12.46,0,0,1-5.51-4.72,15.41,15.41,0,0,1-.35-14.31,11.84,11.84,0,0,1,4-4.2,19.68,19.68,0,0,1,5.72-2.39,44,44,0,0,1,6.64-1.15q4.13-.45,6.67-.81c1-.14,2.22-.32,3.21-.55a2.06,2.06,0,0,0,1.59-2v-6.64a2.09,2.09,0,0,0-2-2.09l-9-.19a2.09,2.09,0,0,0-2.13,2.09h0a2.1,2.1,0,0,1-1.67,2.05l-4.55.93a2.09,2.09,0,0,1-2.51-2.1l.19-8.46a2.1,2.1,0,0,1,2.1-2.05Zm-18.74,39a11.84,11.84,0,0,0,5.54-1.25,9.48,9.48,0,0,0,3.73-3.38,8.81,8.81,0,0,0,1.35-4.65l.09-5.34a5.3,5.3,0,0,1-1.74.78c-.79.23-1.67.44-2.63.62s-1.93.34-2.89.48l-2.5.35a18.18,18.18,0,0,0-4.29,1.08,7.25,7.25,0,0,0-3,2.06,5.37,5.37,0,0,0-1.14,3.36,5,5,0,0,0,2.06,4.39A9,9,0,0,0,175,195.33Z" transform="translate(-23.85 -138.44)"/><path class="cls-4" d="M237.69,156.7a2.07,2.07,0,0,1,2.06,2.07c0,3.7,0,11.3,0,13.52l-.48,29.21a2.07,2.07,0,0,1-2.07,2h-5.27a2.08,2.08,0,0,1-2.08-2.11l.09-4.31h-.37a13,13,0,0,1-2.93,3.69,13.78,13.78,0,0,1-4.56,2.66,18.39,18.39,0,0,1-6.27,1,19.07,19.07,0,0,1-7.94-1.57,12.35,12.35,0,0,1-5.47-4.69A15.29,15.29,0,0,1,202,184a11.67,11.67,0,0,1,4-4.17,19.57,19.57,0,0,1,5.68-2.38,43.36,43.36,0,0,1,6.59-1.14q4.09-.45,6.63-.8c1-.14,2.2-.32,3.19-.55a2.06,2.06,0,0,0,1.58-2v-6.59a2.07,2.07,0,0,0-2-2.08l-9-.19a2.09,2.09,0,0,0-2.12,2.08h0a2.06,2.06,0,0,1-1.66,2l-4.52.93a2.08,2.08,0,0,1-2.49-2.08l.19-8.41a2.08,2.08,0,0,1,2.09-2Zm-18.62,38.69a11.68,11.68,0,0,0,5.5-1.24,9.4,9.4,0,0,0,3.7-3.35,8.77,8.77,0,0,0,1.35-4.63l.09-5.3a5.35,5.35,0,0,1-1.73.77,24.17,24.17,0,0,1-2.62.62c-1,.19-1.91.34-2.86.47l-2.49.35a18.67,18.67,0,0,0-4.26,1.08,7.13,7.13,0,0,0-2.94,2.05,5.34,5.34,0,0,0-1.13,3.33,5,5,0,0,0,2,4.37A9,9,0,0,0,219.07,195.39Z" transform="translate(-23.85 -138.44)"/><path class="cls-4" d="M334.07,156.7a2.09,2.09,0,0,1,2.07,2.07c0,3.7,0,11.3,0,13.52l-.52,31.25H328.3a2.08,2.08,0,0,1-2.08-2.11l.09-4.31h-.37a13,13,0,0,1-2.92,3.69,13.93,13.93,0,0,1-4.57,2.66,18.39,18.39,0,0,1-6.27,1,19.07,19.07,0,0,1-7.94-1.57,12.35,12.35,0,0,1-5.47-4.69,15.29,15.29,0,0,1-.35-14.21,11.67,11.67,0,0,1,4-4.17,19.69,19.69,0,0,1,5.68-2.38,43.49,43.49,0,0,1,6.6-1.14q4.08-.45,6.62-.8c1-.14,2.2-.32,3.19-.55a2.06,2.06,0,0,0,1.58-2v-6.59a2.07,2.07,0,0,0-2-2.08l-8.95-.19a2.08,2.08,0,0,0-2.11,2.08h0a2.07,2.07,0,0,1-1.67,2l-4.51.93a2.08,2.08,0,0,1-2.49-2.08l.19-8.41a2.07,2.07,0,0,1,2.08-2Zm-18.62,38.69a11.72,11.72,0,0,0,5.51-1.24,9.54,9.54,0,0,0,3.7-3.35,8.85,8.85,0,0,0,1.34-4.63l.09-5.3a5.38,5.38,0,0,1-1.72.77,25.35,25.35,0,0,1-2.62.62c-1,.19-1.92.34-2.87.47l-2.49.35a18.67,18.67,0,0,0-4.26,1.08,7.13,7.13,0,0,0-2.94,2.05,5.34,5.34,0,0,0-1.13,3.33,5,5,0,0,0,2,4.37A9,9,0,0,0,315.45,195.39Z" transform="translate(-23.85 -138.44)"/><path class="cls-4" d="M250.78,218.06l2.85-5.91a2.32,2.32,0,0,1,2.09-1.31l21.47.15a2.33,2.33,0,0,0,2.33-2.29l.14-12.45h-.56a15.22,15.22,0,0,1-2.62,3.66,13.39,13.39,0,0,1-4.48,3,17,17,0,0,1-6.76,1.2,19.33,19.33,0,0,1-9.9-2.57,17.86,17.86,0,0,1-7-7.78q-2.56-5.19-2.43-13.06a30.86,30.86,0,0,1,2.87-13.46,19.79,19.79,0,0,1,7.26-8.24,18.59,18.59,0,0,1,9.94-2.78,14.84,14.84,0,0,1,6.87,1.41,13.28,13.28,0,0,1,4.32,3.39,17.4,17.4,0,0,1,2.42,3.79h.59l.09-5.69a2.31,2.31,0,0,1,2.31-2.27h7.28a2.31,2.31,0,0,1,2.31,2.35l-.88,53a2.27,2.27,0,0,1-.35,1.19l-5,7.87a.67.67,0,0,1-.56.3l-32.61-.19A2.3,2.3,0,0,1,250.78,218.06Zm18.14-23.19a10.06,10.06,0,0,0,5.9-1.7,10.83,10.83,0,0,0,3.77-4.89,20.75,20.75,0,0,0,1.39-7.61,21.94,21.94,0,0,0-1.13-7.73,10.88,10.88,0,0,0-3.57-5.12,9.42,9.42,0,0,0-5.89-1.83,9.69,9.69,0,0,0-6.06,1.89,11.89,11.89,0,0,0-3.76,5.2,21.9,21.9,0,0,0-1.36,7.59,20.61,20.61,0,0,0,1.13,7.49,10.49,10.49,0,0,0,3.6,5A9.94,9.94,0,0,0,268.92,194.87Z" transform="translate(-23.85 -138.44)"/><circle class="cls-2" cx="5.84" cy="61.54" r="5.84"/></svg>