<svg id="Layer_1" data-name="Layer 1" xmlns="http://www.w3.org/2000/svg" viewBox="0 0 324.23 86.3"><defs><style>.cls-1{fill:#e53846;}.cls-2{fill:#d7283a;}.cls-3{fill:#e63947;}</style></defs><path class="cls-1" d="M98.78,174.05a40.05,40.05,0,0,1-63.33,35.36,5.69,5.69,0,0,1,0-9.27h0a5.72,5.72,0,0,1,6.65.09,28.69,28.69,0,1,0-11.92-25.38c-.2,2.81.62,6.9,1.37,9.9A5.84,5.84,0,0,1,29.16,191h0a5.86,5.86,0,0,1-8.91-3.34,40.05,40.05,0,1,1,78.53-13.62Z" transform="translate(-17.89 -136.85)"/><polygon class="cls-2" points="54.76 25.42 39.45 34.56 30.23 33.31 31.35 22.7 54.76 25.42"/><path class="cls-3" d="M76.28,165.39,73.55,190l-10.88-1.15,1.14-9.24L45.63,192.39a5.45,5.45,0,0,1-7.58-1.31h0a5.44,5.44,0,0,1,1.41-7.66l17.87-12,15.31-9.14,1.28.15A2.69,2.69,0,0,1,76.28,165.39Z" transform="translate(-17.89 -136.85)"/><path class="cls-2" d="M119.27,174.92l-.43,25.91a2.76,2.76,0,0,1-2.75,2.71h-7.5a2.07,2.07,0,0,1-2.06-2.1l.76-43.41a2.07,2.07,0,0,1,1.75-2l7.63-1.18a2.05,2.05,0,0,1,2.37,2.07l-.09,6h.58a14.2,14.2,0,0,1,5.52-6.65,16.71,16.71,0,0,1,9.27-2.46,17.28,17.28,0,0,1,8.86,2.19,14.51,14.51,0,0,1,5.78,6.33,21.5,21.5,0,0,1,1.93,10l-.49,28.53a2.76,2.76,0,0,1-2.75,2.71h-6.8a2.75,2.75,0,0,1-2.75-2.8l.43-26.43a10.48,10.48,0,0,0-2.31-7.46,8.6,8.6,0,0,0-6.76-2.7,10.48,10.48,0,0,0-5.21,1.28,9.07,9.07,0,0,0-3.57,3.69A12.64,12.64,0,0,0,119.27,174.92Z" transform="translate(-17.89 -136.85)"/><path class="cls-2" d="M194.28,155.48a2.17,2.17,0,0,1,2.16,2.16c0,3.86,0,11.81,0,14.13l-.5,30.53a2.17,2.17,0,0,1-2.17,2.14h-5.51a2.17,2.17,0,0,1-2.17-2.22l.09-4.5h-.38a13.58,13.58,0,0,1-3.06,3.86,14.49,14.49,0,0,1-4.77,2.78,19.26,19.26,0,0,1-6.56,1,19.9,19.9,0,0,1-8.3-1.65,12.92,12.92,0,0,1-5.72-4.9A16.07,16.07,0,0,1,157,184a12.3,12.3,0,0,1,4.19-4.35,20.57,20.57,0,0,1,5.94-2.49A45.86,45.86,0,0,1,174,176q4.28-.48,6.92-.84c1-.14,2.31-.33,3.33-.57a2.14,2.14,0,0,0,1.66-2.11v-6.89a2.16,2.16,0,0,0-2.12-2.17l-9.35-.2a2.17,2.17,0,0,0-2.22,2.17h0a2.17,2.17,0,0,1-1.73,2.13l-4.73,1a2.17,2.17,0,0,1-2.6-2.17l.2-8.79a2.17,2.17,0,0,1,2.18-2.12Zm-19.46,40.43a12.31,12.31,0,0,0,5.75-1.29,9.84,9.84,0,0,0,3.87-3.51,9.08,9.08,0,0,0,1.41-4.83l.09-5.54a5.69,5.69,0,0,1-1.8.8,24.61,24.61,0,0,1-2.74.65c-1,.19-2,.36-3,.5l-2.6.36a19.56,19.56,0,0,0-4.45,1.12,7.56,7.56,0,0,0-3.07,2.14,5.56,5.56,0,0,0-1.19,3.49,5.16,5.16,0,0,0,2.14,4.56A9.35,9.35,0,0,0,174.82,195.91Z" transform="translate(-17.89 -136.85)"/><path class="cls-2" d="M239.89,155.81A2.17,2.17,0,0,1,242,158c0,3.84,0,11.73,0,14l-.5,30.32a2.16,2.16,0,0,1-2.16,2.12H233.9a2.14,2.14,0,0,1-2.15-2.19l.08-4.48h-.38a13.38,13.38,0,0,1-3,3.84,14.46,14.46,0,0,1-4.74,2.75,19,19,0,0,1-6.51,1,19.82,19.82,0,0,1-8.25-1.64,12.85,12.85,0,0,1-5.68-4.86,15.9,15.9,0,0,1-.36-14.76A12.13,12.13,0,0,1,207,179.8a20.69,20.69,0,0,1,5.9-2.47,45.55,45.55,0,0,1,6.85-1.18q4.25-.47,6.87-.83c1-.15,2.29-.33,3.31-.57a2.14,2.14,0,0,0,1.65-2.1V165.8a2.15,2.15,0,0,0-2.11-2.15l-9.29-.19a2.15,2.15,0,0,0-2.2,2.15h0a2.15,2.15,0,0,1-1.72,2.11l-4.69,1a2.16,2.16,0,0,1-2.59-2.16l.2-8.73a2.17,2.17,0,0,1,2.16-2.11ZM220.56,196a12.21,12.21,0,0,0,5.72-1.29,9.82,9.82,0,0,0,3.84-3.48,9.2,9.2,0,0,0,1.4-4.8l.09-5.51a5.7,5.7,0,0,1-1.79.81c-.82.24-1.73.45-2.72.64s-2,.35-3,.49l-2.58.36a18.66,18.66,0,0,0-4.42,1.12,7.36,7.36,0,0,0-3.05,2.12,5.49,5.49,0,0,0-1.18,3.46,5.12,5.12,0,0,0,2.12,4.54A9.38,9.38,0,0,0,220.56,196Z" transform="translate(-17.89 -136.85)"/><path class="cls-2" d="M340,155.81A2.17,2.17,0,0,1,342.1,158c0,3.84,0,11.73,0,14l-.54,32.44H334a2.15,2.15,0,0,1-2.15-2.19l.08-4.48h-.37a13.6,13.6,0,0,1-3,3.84,14.46,14.46,0,0,1-4.74,2.75,19,19,0,0,1-6.51,1,19.82,19.82,0,0,1-8.25-1.64,12.85,12.85,0,0,1-5.68-4.86,15.9,15.9,0,0,1-.36-14.76,12.13,12.13,0,0,1,4.15-4.33,20.69,20.69,0,0,1,5.9-2.47,45.55,45.55,0,0,1,6.85-1.18q4.25-.47,6.88-.83c1-.15,2.28-.33,3.3-.57a2.13,2.13,0,0,0,1.65-2.1V165.8a2.15,2.15,0,0,0-2.11-2.15l-9.29-.19a2.15,2.15,0,0,0-2.2,2.15h0a2.15,2.15,0,0,1-1.72,2.11l-4.69,1a2.16,2.16,0,0,1-2.59-2.16l.2-8.73a2.17,2.17,0,0,1,2.16-2.11ZM320.63,196a12.17,12.17,0,0,0,5.71-1.29,9.82,9.82,0,0,0,3.84-3.48,9.11,9.11,0,0,0,1.4-4.8l.09-5.51a5.59,5.59,0,0,1-1.79.81c-.82.24-1.73.45-2.72.64s-2,.35-3,.49l-2.58.36a18.66,18.66,0,0,0-4.42,1.12,7.36,7.36,0,0,0-3.05,2.12A5.49,5.49,0,0,0,313,189.9a5.15,5.15,0,0,0,2.12,4.54A9.4,9.4,0,0,0,320.63,196Z" transform="translate(-17.89 -136.85)"/><path class="cls-2" d="M253.48,219.51l3-6.13a2.39,2.39,0,0,1,2.17-1.36l22.29.15a2.41,2.41,0,0,0,2.42-2.37l.15-12.93h-.59a15.56,15.56,0,0,1-2.72,3.8,13.8,13.8,0,0,1-4.65,3.15,17.6,17.6,0,0,1-7,1.25,20,20,0,0,1-10.27-2.68,18.44,18.44,0,0,1-7.23-8.07q-2.66-5.4-2.53-13.56a32,32,0,0,1,3-14,20.58,20.58,0,0,1,7.53-8.56,19.31,19.31,0,0,1,10.32-2.88,15.33,15.33,0,0,1,7.13,1.46,13.83,13.83,0,0,1,4.49,3.51,18.29,18.29,0,0,1,2.52,3.94h.61l.09-5.91a2.4,2.4,0,0,1,2.4-2.35h7.55a2.39,2.39,0,0,1,2.4,2.43l-.91,55a2.42,2.42,0,0,1-.36,1.23c-1.08,1.71-4.32,6.84-5.17,8.17a.65.65,0,0,1-.57.32l-33.86-.2A2.4,2.4,0,0,1,253.48,219.51Zm18.84-24.07a10.38,10.38,0,0,0,6.12-1.77,11.19,11.19,0,0,0,3.91-5.07,21.2,21.2,0,0,0,1.44-7.91,22.6,22.6,0,0,0-1.17-8,11.21,11.21,0,0,0-3.71-5.31,9.72,9.72,0,0,0-6.11-1.9,10,10,0,0,0-6.28,2,12.25,12.25,0,0,0-3.91,5.4,22.22,22.22,0,0,0-1.41,7.87,21.45,21.45,0,0,0,1.17,7.78,10.88,10.88,0,0,0,3.74,5.14A10.24,10.24,0,0,0,272.32,195.44Z" transform="translate(-17.89 -136.85)"/><circle class="cls-2" cx="6.06" cy="63.89" r="6.06"/></svg>