<svg id="Layer_1" data-name="Layer 1" xmlns="http://www.w3.org/2000/svg" viewBox="0 0 300.73 85.06"><defs><style>.cls-1{fill:#e53846;}.cls-2{fill:#d7283a;}.cls-3{fill:#e63947;}</style></defs><path class="cls-1" d="M105.89,177.3a38,38,0,0,1-60.1,33.56,5.4,5.4,0,0,1,0-8.8h0a5.44,5.44,0,0,1,6.31.08,27.22,27.22,0,1,0-11.31-24.08c-.19,2.67.59,6.55,1.29,9.4a5.53,5.53,0,0,1-2.29,5.93h0a5.55,5.55,0,0,1-8.45-3.16,38,38,0,1,1,74.52-12.93Z" transform="translate(-29.12 -142)"/><polygon class="cls-2" points="51.96 24.12 37.43 32.8 28.68 31.61 29.75 21.54 51.96 24.12"/><path class="cls-3" d="M84.53,169.08,81.94,192.4l-10.32-1.09,1.08-8.77L55.45,194.7a5.16,5.16,0,0,1-7.19-1.24h0a5.16,5.16,0,0,1,1.33-7.26l17-11.4,14.53-8.67,1.21.14A2.54,2.54,0,0,1,84.53,169.08Z" transform="translate(-29.12 -142)"/><circle class="cls-2" cx="5.75" cy="60.63" r="5.75"/><path class="cls-1" d="M122.37,206.27H111.93V164h9.67l.86,5.48a13.38,13.38,0,0,1,5.6-5,17.69,17.69,0,0,1,7.91-1.79q8,0,12,4.7t4.06,12.84v26H141.62V182.74q0-5.31-2.39-7.92a8.41,8.41,0,0,0-6.51-2.61,9.66,9.66,0,0,0-7.61,3.08,11.92,11.92,0,0,0-2.74,8.22Z" transform="translate(-29.12 -142)"/><path class="cls-1" d="M171.05,207.38q-6.68,0-10.56-3.64a12.42,12.42,0,0,1-3.9-9.54,11.59,11.59,0,0,1,4.07-9.28q4.07-3.46,11.59-4.06l12.67-1v-.94a8.85,8.85,0,0,0-1.08-4.67,6.25,6.25,0,0,0-3-2.56,12.14,12.14,0,0,0-4.62-.82c-3.08,0-5.45.62-7.1,1.84a6.08,6.08,0,0,0-2.49,5.18h-8.89a13.65,13.65,0,0,1,2.35-8,15.35,15.35,0,0,1,6.67-5.26,24.7,24.7,0,0,1,10-1.88,22.2,22.2,0,0,1,9.84,2,14.22,14.22,0,0,1,6.33,6,20,20,0,0,1,2.23,9.88v25.67h-9.16l-.77-6.25a10.89,10.89,0,0,1-5.26,5.31A18.7,18.7,0,0,1,171.05,207.38Zm3.34-7.87a10.72,10.72,0,0,0,7.74-2.74,10,10,0,0,0,2.87-7.61v-2.23l-8.81.69q-4.87.42-6.93,2a5,5,0,0,0-2.06,4.15,5.05,5.05,0,0,0,1.89,4.27A8.48,8.48,0,0,0,174.39,199.51Z" transform="translate(-29.12 -142)"/><path class="cls-1" d="M214.09,207.38q-6.68,0-10.57-3.64a12.45,12.45,0,0,1-3.89-9.54,11.58,11.58,0,0,1,4.06-9.28q4.06-3.46,11.6-4.06l12.66-1v-.94a8.94,8.94,0,0,0-1.07-4.67,6.23,6.23,0,0,0-3-2.56,12.07,12.07,0,0,0-4.62-.82c-3.08,0-5.44.62-7.1,1.84a6.1,6.1,0,0,0-2.48,5.18h-8.9a13.66,13.66,0,0,1,2.36-8,15.29,15.29,0,0,1,6.67-5.26,24.66,24.66,0,0,1,10-1.88,22.2,22.2,0,0,1,9.84,2,14.32,14.32,0,0,1,6.33,6,20,20,0,0,1,2.22,9.88v25.67H229l-.77-6.25a10.93,10.93,0,0,1-5.26,5.31A18.7,18.7,0,0,1,214.09,207.38Zm3.34-7.87a10.72,10.72,0,0,0,7.74-2.74,10,10,0,0,0,2.87-7.61v-2.23l-8.82.69q-4.87.42-6.93,2a5,5,0,0,0-2,4.15,5.07,5.07,0,0,0,1.88,4.27A8.51,8.51,0,0,0,217.43,199.51Z" transform="translate(-29.12 -142)"/><path class="cls-1" d="M242.15,184.19a23.31,23.31,0,0,1,2.53-11,19.14,19.14,0,0,1,17.58-10.48,17.39,17.39,0,0,1,9.24,2.35,12.54,12.54,0,0,1,5.39,6.55l-1.11.94.85-8.56h9.67v40.13a26.15,26.15,0,0,1-2.69,12.19,19.07,19.07,0,0,1-7.62,8,23.76,23.76,0,0,1-11.85,2.78q-9.06,0-14.89-4.88a19.79,19.79,0,0,1-6.84-13.35h10.44a9.25,9.25,0,0,0,3.46,6.42,12.36,12.36,0,0,0,7.83,2.31,11.8,11.8,0,0,0,8.6-3.12A11.21,11.21,0,0,0,276,206V195.49l1.2,1.11A12.57,12.57,0,0,1,271.5,203a18.57,18.57,0,0,1-9.5,2.39,19.5,19.5,0,0,1-10.44-2.74,18.81,18.81,0,0,1-6.93-7.53A23.49,23.49,0,0,1,242.15,184.19Zm10.53-.25a13.89,13.89,0,0,0,1.41,6.37,10.75,10.75,0,0,0,10,6,11.69,11.69,0,0,0,6.2-1.58,10.58,10.58,0,0,0,4-4.36,14.13,14.13,0,0,0,1.41-6.46,13.83,13.83,0,0,0-1.37-6.38,10.12,10.12,0,0,0-4-4.23,12.17,12.17,0,0,0-6.29-1.54,11.31,11.31,0,0,0-6.08,1.58,10.45,10.45,0,0,0-3.93,4.32A13.71,13.71,0,0,0,252.68,183.94Z" transform="translate(-29.12 -142)"/><path class="cls-1" d="M305.81,207.38q-6.68,0-10.57-3.64a12.45,12.45,0,0,1-3.89-9.54,11.59,11.59,0,0,1,4.07-9.28q4.05-3.46,11.59-4.06l12.66-1v-.94a8.94,8.94,0,0,0-1.07-4.67,6.23,6.23,0,0,0-3-2.56,12.07,12.07,0,0,0-4.62-.82c-3.08,0-5.44.62-7.1,1.84a6.1,6.1,0,0,0-2.48,5.18h-8.9a13.66,13.66,0,0,1,2.36-8,15.29,15.29,0,0,1,6.67-5.26,24.66,24.66,0,0,1,10-1.88,22.2,22.2,0,0,1,9.84,2,14.27,14.27,0,0,1,6.33,6,20,20,0,0,1,2.22,9.88v25.67H320.7l-.77-6.25a10.93,10.93,0,0,1-5.26,5.31A18.7,18.7,0,0,1,305.81,207.38Zm3.34-7.87a10.72,10.72,0,0,0,7.74-2.74,10,10,0,0,0,2.87-7.61v-2.23l-8.82.69q-4.87.42-6.93,2a5,5,0,0,0-2.05,4.15,5.07,5.07,0,0,0,1.88,4.27A8.53,8.53,0,0,0,309.15,199.51Z" transform="translate(-29.12 -142)"/></svg>