<svg id="Layer_1" data-name="Layer 1" xmlns="http://www.w3.org/2000/svg" viewBox="0 0 291.74 77.65"><defs><style>.cls-1{fill:#e53846;}.cls-2{fill:#d7283a;}.cls-3{fill:#e63947;}.cls-4{fill:#1d1d1b;}</style></defs><path class="cls-1" d="M101.57,174.65a36,36,0,0,1-57,31.81,5.12,5.12,0,0,1,0-8.34h0a5.14,5.14,0,0,1,6,.08,25.82,25.82,0,1,0-10.72-22.83,33,33,0,0,0,1.23,8.9,5.27,5.27,0,0,1-2.17,5.63h0a5.28,5.28,0,0,1-8-3,36,36,0,1,1,70.67-12.25Z" transform="translate(-28.78 -141.17)"/><polygon class="cls-2" points="49.27 22.87 35.49 31.1 27.2 29.97 28.21 20.42 49.27 22.87"/><path class="cls-3" d="M81.32,166.85,78.86,189l-9.79-1,1-8.32L53.74,191.14A4.9,4.9,0,0,1,46.92,190h0a4.9,4.9,0,0,1,1.27-6.89l16.08-10.81,13.78-8.22,1.15.13A2.43,2.43,0,0,1,81.32,166.85Z" transform="translate(-28.78 -141.17)"/><path class="cls-4" d="M120,175.43l-.39,23.32a2.47,2.47,0,0,1-2.47,2.43h-6.75a1.85,1.85,0,0,1-1.85-1.89l.69-39.06a1.84,1.84,0,0,1,1.56-1.8l6.87-1.06a1.85,1.85,0,0,1,2.14,1.86l-.08,5.42h.51a12.72,12.72,0,0,1,5-6,15,15,0,0,1,8.33-2.21,15.63,15.63,0,0,1,8,2,13.09,13.09,0,0,1,5.2,5.7,19.58,19.58,0,0,1,1.74,8.95L148,198.75a2.47,2.47,0,0,1-2.47,2.43h-6.12a2.48,2.48,0,0,1-2.48-2.52l.39-23.78a9.38,9.38,0,0,0-2.08-6.71,7.73,7.73,0,0,0-6.08-2.43,9.33,9.33,0,0,0-4.68,1.15,8.12,8.12,0,0,0-3.22,3.32A11.46,11.46,0,0,0,120,175.43Z" transform="translate(-28.78 -141.17)"/><path class="cls-4" d="M187.49,157.94a2,2,0,0,1,1.95,1.94c0,3.48,0,10.63,0,12.71L189,200.07a2,2,0,0,1-2,1.92h-5a2,2,0,0,1-1.95-2l.07-4.06h-.34a12,12,0,0,1-2.75,3.48,13.08,13.08,0,0,1-4.29,2.5,17.36,17.36,0,0,1-5.9.92,17.88,17.88,0,0,1-7.47-1.48,11.72,11.72,0,0,1-5.15-4.4,14.45,14.45,0,0,1-.33-13.38,11.15,11.15,0,0,1,3.77-3.92,18.8,18.8,0,0,1,5.34-2.23,41.14,41.14,0,0,1,6.2-1.07q3.85-.44,6.23-.76c.94-.13,2.08-.3,3-.51a1.94,1.94,0,0,0,1.49-1.9V167a2,2,0,0,0-1.91-2l-8.41-.17a2,2,0,0,0-2,1.95h0a1.94,1.94,0,0,1-1.56,1.91l-4.25.87a2,2,0,0,1-2.34-2l.18-7.9a2,2,0,0,1,2-1.91ZM170,194.32a11,11,0,0,0,5.17-1.17,8.86,8.86,0,0,0,3.48-3.15,8.21,8.21,0,0,0,1.27-4.35l.08-5a5,5,0,0,1-1.62.73,25.14,25.14,0,0,1-2.47.58c-.9.18-1.8.32-2.69.45l-2.34.32a17.15,17.15,0,0,0-4,1,6.64,6.64,0,0,0-2.76,1.92,5.05,5.05,0,0,0-1.07,3.14,4.64,4.64,0,0,0,1.93,4.1A8.45,8.45,0,0,0,170,194.32Z" transform="translate(-28.78 -141.17)"/><path class="cls-4" d="M228.53,158.24a1.92,1.92,0,0,1,1.93,1.93c0,3.45,0,10.55,0,12.63L230,200.09a1.94,1.94,0,0,1-1.94,1.9h-4.92a1.94,1.94,0,0,1-1.94-2l.07-4h-.34a12,12,0,0,1-2.73,3.45,12.89,12.89,0,0,1-4.26,2.48,17.16,17.16,0,0,1-5.86.92,17.84,17.84,0,0,1-7.42-1.47,11.55,11.55,0,0,1-5.11-4.37,12.72,12.72,0,0,1-1.8-7.18,12.88,12.88,0,0,1,1.47-6.11,11,11,0,0,1,3.74-3.89,18.59,18.59,0,0,1,5.31-2.22,40.19,40.19,0,0,1,6.16-1.06q3.83-.43,6.19-.75c.92-.13,2.05-.3,3-.51a1.93,1.93,0,0,0,1.48-1.89v-6.16a1.93,1.93,0,0,0-1.89-1.94l-8.36-.18a1.94,1.94,0,0,0-2,1.94h0a1.94,1.94,0,0,1-1.55,1.9l-4.22.86a1.94,1.94,0,0,1-2.33-1.94l.18-7.85a1.94,1.94,0,0,1,1.95-1.9Zm-17.39,36.14a11,11,0,0,0,5.14-1.16,8.77,8.77,0,0,0,3.46-3.13,8.19,8.19,0,0,0,1.26-4.32l.08-5a4.7,4.7,0,0,1-1.61.72,24.57,24.57,0,0,1-2.45.59c-.9.17-1.79.31-2.68.43l-2.32.33a17,17,0,0,0-4,1,6.56,6.56,0,0,0-2.74,1.91,4.92,4.92,0,0,0-1.06,3.11,4.61,4.61,0,0,0,1.91,4.08A8.41,8.41,0,0,0,211.14,194.38Z" transform="translate(-28.78 -141.17)"/><path class="cls-4" d="M318.57,158.24a1.93,1.93,0,0,1,1.93,1.93c0,3.45,0,10.55,0,12.63L320,202h-6.83a1.94,1.94,0,0,1-1.94-2l.08-4H311a11.89,11.89,0,0,1-2.74,3.45,12.89,12.89,0,0,1-4.26,2.48,17.12,17.12,0,0,1-5.86.92,17.87,17.87,0,0,1-7.42-1.47,11.61,11.61,0,0,1-5.11-4.37,12.72,12.72,0,0,1-1.8-7.18,12.88,12.88,0,0,1,1.47-6.11,11.06,11.06,0,0,1,3.74-3.89,18.59,18.59,0,0,1,5.31-2.22,40.61,40.61,0,0,1,6.16-1.06q3.82-.43,6.19-.75c.93-.13,2.06-.3,3-.51a1.94,1.94,0,0,0,1.48-1.89v-6.16a1.94,1.94,0,0,0-1.9-1.94l-8.36-.18a2,2,0,0,0-2,1.94h0a1.94,1.94,0,0,1-1.55,1.9l-4.22.86a1.94,1.94,0,0,1-2.33-1.94L291,160a2,2,0,0,1,2-1.9Zm-17.39,36.14a11,11,0,0,0,5.14-1.16,8.81,8.81,0,0,0,3.45-3.13,8.1,8.1,0,0,0,1.26-4.32l.09-5a4.76,4.76,0,0,1-1.62.72,24.34,24.34,0,0,1-2.44.59c-.9.17-1.79.31-2.68.43l-2.32.33a16.89,16.89,0,0,0-4,1,6.59,6.59,0,0,0-2.75,1.91,5,5,0,0,0-1.06,3.11,4.64,4.64,0,0,0,1.91,4.08A8.42,8.42,0,0,0,301.18,194.38Z" transform="translate(-28.78 -141.17)"/><path class="cls-4" d="M240.76,215.55l2.66-5.52a2.17,2.17,0,0,1,2-1.22l20.06.13a2.16,2.16,0,0,0,2.17-2.13l.13-11.63h-.52a14.07,14.07,0,0,1-2.45,3.42,12.41,12.41,0,0,1-4.19,2.83,15.76,15.76,0,0,1-6.31,1.12,18,18,0,0,1-9.24-2.4,16.7,16.7,0,0,1-6.51-7.26,26.63,26.63,0,0,1-2.27-12.21,28.85,28.85,0,0,1,2.68-12.57,18.52,18.52,0,0,1,6.78-7.7,17.38,17.38,0,0,1,9.29-2.59,13.84,13.84,0,0,1,6.42,1.31,12.57,12.57,0,0,1,4,3.16,16.35,16.35,0,0,1,2.27,3.55h.55l.08-5.32a2.16,2.16,0,0,1,2.16-2.12h6.8a2.16,2.16,0,0,1,2.15,2.19l-.82,49.49a2.05,2.05,0,0,1-.32,1.11l-4.65,7.35a.61.61,0,0,1-.52.29l-30.47-.18A2.16,2.16,0,0,1,240.76,215.55Zm16.95-21.66a9.35,9.35,0,0,0,5.51-1.59,10.17,10.17,0,0,0,3.52-4.56,19.33,19.33,0,0,0,1.3-7.12,20.56,20.56,0,0,0-1.05-7.21,10.23,10.23,0,0,0-3.34-4.79,8.83,8.83,0,0,0-5.5-1.7,9,9,0,0,0-5.66,1.76,11.09,11.09,0,0,0-3.51,4.86,20.08,20.08,0,0,0-1.27,7.08,19.14,19.14,0,0,0,1,7,9.66,9.66,0,0,0,3.37,4.62A9.2,9.2,0,0,0,257.71,193.89Z" transform="translate(-28.78 -141.17)"/><circle class="cls-4" cx="5.45" cy="57.49" r="5.45"/></svg>