<svg id="Layer_1" data-name="Layer 1" xmlns="http://www.w3.org/2000/svg" viewBox="0 0 327.44 87.15"><defs><style>.cls-1{fill:#e53846;}.cls-2{fill:#d7283a;}.cls-3{fill:#e63947;}.cls-4{fill:#1d1d1b;}</style></defs><path class="cls-1" d="M98,174A40.46,40.46,0,0,1,34,209.7a5.75,5.75,0,0,1,0-9.36h0a5.75,5.75,0,0,1,6.71.09,29,29,0,1,0-12-25.63c-.2,2.84.63,7,1.38,10a5.92,5.92,0,0,1-2.44,6.32h0a5.93,5.93,0,0,1-9-3.37A40.45,40.45,0,1,1,98,174Z" transform="translate(-16.28 -136.42)"/><polygon class="cls-2" points="55.3 25.67 39.84 34.9 30.53 33.64 31.66 22.92 55.3 25.67"/><path class="cls-3" d="M75.25,165.24,72.5,190.06l-11-1.16,1.15-9.34L44.3,192.51a5.49,5.49,0,0,1-7.65-1.32h0a5.49,5.49,0,0,1,1.42-7.73l18-12.13,15.46-9.23,1.29.15A2.71,2.71,0,0,1,75.25,165.24Z" transform="translate(-16.28 -136.42)"/><path class="cls-4" d="M118.67,174.87,118.23,201a2.78,2.78,0,0,1-2.78,2.73h-7.57a2.08,2.08,0,0,1-2.08-2.12l.77-43.84a2.09,2.09,0,0,1,1.76-2L116,154.6a2.08,2.08,0,0,1,2.4,2.09l-.09,6.08h.58a14.26,14.26,0,0,1,5.58-6.71,16.83,16.83,0,0,1,9.35-2.49,17.47,17.47,0,0,1,8.95,2.21,14.67,14.67,0,0,1,5.84,6.39,21.83,21.83,0,0,1,2,10.05l-.5,28.82a2.78,2.78,0,0,1-2.78,2.73h-6.87a2.78,2.78,0,0,1-2.78-2.82l.44-26.7q.1-4.8-2.34-7.53A8.66,8.66,0,0,0,129,164a10.54,10.54,0,0,0-5.26,1.29,9.27,9.27,0,0,0-3.61,3.73A12.9,12.9,0,0,0,118.67,174.87Z" transform="translate(-16.28 -136.42)"/><path class="cls-4" d="M194.42,155.24a2.18,2.18,0,0,1,2.18,2.18c0,3.9,0,11.92,0,14.27l-.51,30.83a2.19,2.19,0,0,1-2.19,2.16h-5.56a2.19,2.19,0,0,1-2.19-2.24l.09-4.55h-.39a13.54,13.54,0,0,1-3.09,3.91,14.62,14.62,0,0,1-4.81,2.8,19.37,19.37,0,0,1-6.62,1,20.14,20.14,0,0,1-8.39-1.67,13,13,0,0,1-5.77-4.94,16.14,16.14,0,0,1-.37-15,12.36,12.36,0,0,1,4.22-4.4,21,21,0,0,1,6-2.51,48.12,48.12,0,0,1,7-1.2q4.32-.48,7-.85c1-.14,2.33-.33,3.37-.57a2.18,2.18,0,0,0,1.67-2.13v-7a2.19,2.19,0,0,0-2.14-2.19l-9.45-.2a2.19,2.19,0,0,0-2.23,2.2h0a2.19,2.19,0,0,1-1.76,2.14l-4.77,1a2.2,2.2,0,0,1-2.63-2.2l.21-8.88a2.19,2.19,0,0,1,2.2-2.14Zm-19.65,40.83a12.32,12.32,0,0,0,5.81-1.31,9.84,9.84,0,0,0,3.9-3.54,9.27,9.27,0,0,0,1.43-4.88l.09-5.6a5.48,5.48,0,0,1-1.82.82c-.83.25-1.76.46-2.77.66s-2,.35-3,.49l-2.63.37a19.25,19.25,0,0,0-4.49,1.14,7.55,7.55,0,0,0-3.11,2.16,5.69,5.69,0,0,0-1.2,3.52,5.22,5.22,0,0,0,2.16,4.6A9.46,9.46,0,0,0,174.77,196.07Z" transform="translate(-16.28 -136.42)"/><path class="cls-4" d="M240.48,155.58a2.17,2.17,0,0,1,2.17,2.16c0,3.88,0,11.85,0,14.18l-.51,30.62a2.17,2.17,0,0,1-2.17,2.14h-5.53a2.18,2.18,0,0,1-2.17-2.21l.08-4.52H232a13.48,13.48,0,0,1-3.07,3.87,14.27,14.27,0,0,1-4.78,2.78,19.09,19.09,0,0,1-6.58,1,19.84,19.84,0,0,1-8.32-1.66,13,13,0,0,1-5.74-4.9,16.09,16.09,0,0,1-.37-14.91,12.3,12.3,0,0,1,4.2-4.37,21,21,0,0,1,6-2.5,47.43,47.43,0,0,1,6.91-1.19q4.29-.48,7-.84c1-.14,2.31-.33,3.34-.57a2.16,2.16,0,0,0,1.66-2.12v-6.92a2.17,2.17,0,0,0-2.13-2.17l-9.38-.2a2.18,2.18,0,0,0-2.22,2.18h0a2.18,2.18,0,0,1-1.74,2.13l-4.74,1a2.18,2.18,0,0,1-2.61-2.18l.2-8.82a2.17,2.17,0,0,1,2.18-2.13ZM221,196.14a12.23,12.23,0,0,0,5.76-1.31,9.72,9.72,0,0,0,3.88-3.51,9.27,9.27,0,0,0,1.42-4.85l.09-5.56a5.42,5.42,0,0,1-1.81.81,26.64,26.64,0,0,1-2.75.65c-1,.19-2,.36-3,.5l-2.61.36a19.73,19.73,0,0,0-4.47,1.13,7.42,7.42,0,0,0-3.08,2.15,5.56,5.56,0,0,0-1.19,3.49,5.18,5.18,0,0,0,2.15,4.58A9.4,9.4,0,0,0,221,196.14Z" transform="translate(-16.28 -136.42)"/><path class="cls-4" d="M341.54,155.58a2.16,2.16,0,0,1,2.16,2.16c0,3.88,0,11.85,0,14.18l-.54,32.76h-7.66a2.18,2.18,0,0,1-2.18-2.21l.09-4.52H333a13.83,13.83,0,0,1-3.07,3.87,14.42,14.42,0,0,1-4.79,2.78,19.07,19.07,0,0,1-6.57,1,19.89,19.89,0,0,1-8.33-1.66,13,13,0,0,1-5.74-4.9,16,16,0,0,1-.36-14.91,12.27,12.27,0,0,1,4.19-4.37,21.12,21.12,0,0,1,6-2.5,47.67,47.67,0,0,1,6.91-1.19q4.29-.48,6.95-.84c1-.14,2.31-.33,3.34-.57a2.16,2.16,0,0,0,1.66-2.12v-6.92a2.17,2.17,0,0,0-2.13-2.17l-9.38-.2a2.18,2.18,0,0,0-2.22,2.18h0a2.18,2.18,0,0,1-1.74,2.13l-4.74,1a2.18,2.18,0,0,1-2.61-2.18l.2-8.82a2.18,2.18,0,0,1,2.19-2.13ZM322,196.14a12.3,12.3,0,0,0,5.77-1.31,9.76,9.76,0,0,0,3.87-3.51,9.09,9.09,0,0,0,1.42-4.85l.09-5.56a5.42,5.42,0,0,1-1.81.81,26,26,0,0,1-2.75.65c-1,.19-2,.36-3,.5l-2.61.36a19.5,19.5,0,0,0-4.46,1.13,7.46,7.46,0,0,0-3.09,2.15,5.62,5.62,0,0,0-1.19,3.49,5.21,5.21,0,0,0,2.15,4.58A9.4,9.4,0,0,0,322,196.14Z" transform="translate(-16.28 -136.42)"/><path class="cls-4" d="M254.21,219.9l3-6.19a2.42,2.42,0,0,1,2.2-1.37l22.51.15a2.43,2.43,0,0,0,2.44-2.4l.15-13.06h-.59a15.93,15.93,0,0,1-2.75,3.85,13.93,13.93,0,0,1-4.69,3.17,17.81,17.81,0,0,1-7.09,1.26,20.19,20.19,0,0,1-10.38-2.7,18.68,18.68,0,0,1-7.3-8.15c-1.78-3.63-2.64-8.2-2.55-13.7a32.37,32.37,0,0,1,3-14.1,20.78,20.78,0,0,1,7.61-8.64,19.46,19.46,0,0,1,10.43-2.92,15.5,15.5,0,0,1,7.2,1.48,13.86,13.86,0,0,1,4.53,3.55,18.19,18.19,0,0,1,2.54,4h.62l.09-6a2.43,2.43,0,0,1,2.42-2.38h7.63a2.41,2.41,0,0,1,2.42,2.46l-.91,55.54a2.5,2.5,0,0,1-.37,1.25l-5.22,8.25a.68.68,0,0,1-.58.32l-34.19-.2A2.42,2.42,0,0,1,254.21,219.9Zm19-24.31a10.53,10.53,0,0,0,6.19-1.78,11.45,11.45,0,0,0,3.94-5.12,21.42,21.42,0,0,0,1.46-8,23,23,0,0,0-1.18-8.1,11.46,11.46,0,0,0-3.75-5.37,9.82,9.82,0,0,0-6.17-1.91,10.15,10.15,0,0,0-6.35,2,12.28,12.28,0,0,0-3.94,5.45A22.63,22.63,0,0,0,262,180.7a21.59,21.59,0,0,0,1.18,7.85,10.93,10.93,0,0,0,3.78,5.19A10.31,10.31,0,0,0,273.23,195.59Z" transform="translate(-16.28 -136.42)"/><circle class="cls-2" cx="6.12" cy="64.52" r="6.12"/></svg>